<mxfile host="app.diagrams.net" modified="2024-05-29T02:47:04.842Z" agent="Mozilla/5.0 (Windows NT 10.0; Win64; x64) AppleWebKit/537.36 (KHTML, like Gecko) Chrome/125.0.0.0 Safari/537.36" etag="MgtXpCz0iLJ1ODEROPaV" version="24.4.9" type="device">
  <diagram name="Página-1" id="y-cpcCvTiFyaftYc4XTQ">
    <mxGraphModel dx="3475" dy="2810" grid="1" gridSize="10" guides="1" tooltips="1" connect="1" arrows="1" fold="1" page="1" pageScale="1" pageWidth="850" pageHeight="1400" math="0" shadow="0">
      <root>
        <mxCell id="0" />
        <mxCell id="1" parent="0" />
        <mxCell id="t640Rx_fxTDDD2z3hvyz-55" style="edgeStyle=orthogonalEdgeStyle;rounded=0;orthogonalLoop=1;jettySize=auto;html=1;curved=1;" edge="1" parent="1" source="t640Rx_fxTDDD2z3hvyz-1" target="t640Rx_fxTDDD2z3hvyz-7">
          <mxGeometry relative="1" as="geometry" />
        </mxCell>
        <mxCell id="t640Rx_fxTDDD2z3hvyz-1" value="Atacar" style="ellipse;whiteSpace=wrap;html=1;" vertex="1" parent="1">
          <mxGeometry x="60" y="440" width="120" height="80" as="geometry" />
        </mxCell>
        <mxCell id="t640Rx_fxTDDD2z3hvyz-4" value="Sentado" style="ellipse;whiteSpace=wrap;html=1;" vertex="1" parent="1">
          <mxGeometry x="920" y="400" width="120" height="80" as="geometry" />
        </mxCell>
        <mxCell id="t640Rx_fxTDDD2z3hvyz-5" value="Muere" style="ellipse;whiteSpace=wrap;html=1;" vertex="1" parent="1">
          <mxGeometry x="230" y="69" width="120" height="80" as="geometry" />
        </mxCell>
        <mxCell id="t640Rx_fxTDDD2z3hvyz-31" style="edgeStyle=orthogonalEdgeStyle;rounded=0;orthogonalLoop=1;jettySize=auto;html=1;curved=1;" edge="1" parent="1" source="t640Rx_fxTDDD2z3hvyz-6" target="t640Rx_fxTDDD2z3hvyz-4">
          <mxGeometry relative="1" as="geometry" />
        </mxCell>
        <mxCell id="t640Rx_fxTDDD2z3hvyz-33" style="edgeStyle=orthogonalEdgeStyle;rounded=0;orthogonalLoop=1;jettySize=auto;html=1;curved=1;" edge="1" parent="1" source="t640Rx_fxTDDD2z3hvyz-4" target="t640Rx_fxTDDD2z3hvyz-12">
          <mxGeometry relative="1" as="geometry" />
        </mxCell>
        <mxCell id="t640Rx_fxTDDD2z3hvyz-44" style="edgeStyle=orthogonalEdgeStyle;rounded=0;orthogonalLoop=1;jettySize=auto;html=1;curved=1;exitX=0.694;exitY=0.026;exitDx=0;exitDy=0;exitPerimeter=0;" edge="1" parent="1" source="t640Rx_fxTDDD2z3hvyz-6" target="t640Rx_fxTDDD2z3hvyz-8">
          <mxGeometry relative="1" as="geometry" />
        </mxCell>
        <mxCell id="t640Rx_fxTDDD2z3hvyz-46" style="edgeStyle=orthogonalEdgeStyle;rounded=0;orthogonalLoop=1;jettySize=auto;html=1;elbow=vertical;curved=1;" edge="1" parent="1" source="t640Rx_fxTDDD2z3hvyz-6" target="t640Rx_fxTDDD2z3hvyz-1">
          <mxGeometry relative="1" as="geometry">
            <Array as="points">
              <mxPoint x="750" y="520" />
            </Array>
          </mxGeometry>
        </mxCell>
        <mxCell id="t640Rx_fxTDDD2z3hvyz-6" value="Domesticado" style="ellipse;whiteSpace=wrap;html=1;" vertex="1" parent="1">
          <mxGeometry x="690" y="310" width="120" height="80" as="geometry" />
        </mxCell>
        <mxCell id="t640Rx_fxTDDD2z3hvyz-60" style="edgeStyle=orthogonalEdgeStyle;rounded=0;orthogonalLoop=1;jettySize=auto;html=1;entryX=0;entryY=0.5;entryDx=0;entryDy=0;curved=1;exitX=0.78;exitY=0.06;exitDx=0;exitDy=0;exitPerimeter=0;" edge="1" parent="1" source="t640Rx_fxTDDD2z3hvyz-7" target="t640Rx_fxTDDD2z3hvyz-8">
          <mxGeometry relative="1" as="geometry">
            <Array as="points">
              <mxPoint x="510" y="255" />
              <mxPoint x="510" y="118" />
            </Array>
          </mxGeometry>
        </mxCell>
        <mxCell id="t640Rx_fxTDDD2z3hvyz-7" value="Pierde salud" style="ellipse;whiteSpace=wrap;html=1;" vertex="1" parent="1">
          <mxGeometry x="120" y="250" width="120" height="80" as="geometry" />
        </mxCell>
        <mxCell id="t640Rx_fxTDDD2z3hvyz-8" value="Saludable" style="ellipse;whiteSpace=wrap;html=1;" vertex="1" parent="1">
          <mxGeometry x="780" y="78" width="120" height="80" as="geometry" />
        </mxCell>
        <mxCell id="t640Rx_fxTDDD2z3hvyz-10" value="&lt;h1 style=&quot;margin-top: 0px;&quot;&gt;Lobo de Minecraft&lt;/h1&gt;&lt;p&gt;Personaje del videojuego Minecraft&lt;/p&gt;" style="text;html=1;whiteSpace=wrap;overflow=hidden;rounded=0;" vertex="1" parent="1">
          <mxGeometry x="440" y="-200" width="300" height="80" as="geometry" />
        </mxCell>
        <mxCell id="t640Rx_fxTDDD2z3hvyz-11" value="" style="shape=image;verticalLabelPosition=bottom;labelBackgroundColor=default;verticalAlign=top;aspect=fixed;imageAspect=0;image=https://pm1.aminoapps.com/6718/738f3a60940f41a1da6851e13f34e6f1e2d1778b_00.jpg;" vertex="1" parent="1">
          <mxGeometry x="470.2" y="-89" width="159.6" height="158" as="geometry" />
        </mxCell>
        <mxCell id="t640Rx_fxTDDD2z3hvyz-35" style="edgeStyle=orthogonalEdgeStyle;rounded=0;orthogonalLoop=1;jettySize=auto;html=1;curved=1;" edge="1" parent="1" source="t640Rx_fxTDDD2z3hvyz-12" target="t640Rx_fxTDDD2z3hvyz-13">
          <mxGeometry relative="1" as="geometry" />
        </mxCell>
        <mxCell id="t640Rx_fxTDDD2z3hvyz-12" value="Levantado" style="ellipse;whiteSpace=wrap;html=1;" vertex="1" parent="1">
          <mxGeometry x="790" y="520" width="120" height="80" as="geometry" />
        </mxCell>
        <mxCell id="t640Rx_fxTDDD2z3hvyz-13" value="Sigue a su amo" style="ellipse;whiteSpace=wrap;html=1;" vertex="1" parent="1">
          <mxGeometry x="580" y="590" width="120" height="80" as="geometry" />
        </mxCell>
        <mxCell id="t640Rx_fxTDDD2z3hvyz-18" style="edgeStyle=orthogonalEdgeStyle;rounded=0;orthogonalLoop=1;jettySize=auto;html=1;curved=1;" edge="1" parent="1" source="t640Rx_fxTDDD2z3hvyz-7" target="t640Rx_fxTDDD2z3hvyz-1">
          <mxGeometry relative="1" as="geometry">
            <Array as="points">
              <mxPoint x="70" y="300" />
            </Array>
          </mxGeometry>
        </mxCell>
        <mxCell id="t640Rx_fxTDDD2z3hvyz-26" style="edgeStyle=orthogonalEdgeStyle;rounded=0;orthogonalLoop=1;jettySize=auto;html=1;curved=1;exitX=0.5;exitY=0;exitDx=0;exitDy=0;entryX=1;entryY=0.5;entryDx=0;entryDy=0;" edge="1" parent="1" source="t640Rx_fxTDDD2z3hvyz-17" target="t640Rx_fxTDDD2z3hvyz-7">
          <mxGeometry relative="1" as="geometry">
            <Array as="points">
              <mxPoint x="400" y="410" />
              <mxPoint x="400" y="310" />
              <mxPoint x="240" y="310" />
            </Array>
          </mxGeometry>
        </mxCell>
        <mxCell id="t640Rx_fxTDDD2z3hvyz-29" style="edgeStyle=orthogonalEdgeStyle;rounded=0;orthogonalLoop=1;jettySize=auto;html=1;entryX=0;entryY=0.5;entryDx=0;entryDy=0;curved=1;" edge="1" parent="1" source="t640Rx_fxTDDD2z3hvyz-17" target="t640Rx_fxTDDD2z3hvyz-6">
          <mxGeometry relative="1" as="geometry" />
        </mxCell>
        <mxCell id="t640Rx_fxTDDD2z3hvyz-17" value="Salvaje" style="ellipse;whiteSpace=wrap;html=1;" vertex="1" parent="1">
          <mxGeometry x="385.5" y="410" width="120" height="80" as="geometry" />
        </mxCell>
        <mxCell id="t640Rx_fxTDDD2z3hvyz-27" value="Es atacado" style="edgeLabel;html=1;align=center;verticalAlign=middle;resizable=0;points=[];" vertex="1" connectable="0" parent="1">
          <mxGeometry x="330.00074074074064" y="359.9974074074079" as="geometry" />
        </mxCell>
        <mxCell id="t640Rx_fxTDDD2z3hvyz-30" value="Humano le da un hueso (1-6)" style="edgeLabel;html=1;align=center;verticalAlign=middle;resizable=0;points=[];" vertex="1" connectable="0" parent="1">
          <mxGeometry x="595.5007407407406" y="359.9974074074079" as="geometry" />
        </mxCell>
        <mxCell id="t640Rx_fxTDDD2z3hvyz-32" value="Su dueño le ordena sentarse" style="edgeLabel;html=1;align=center;verticalAlign=middle;resizable=0;points=[];" vertex="1" connectable="0" parent="1">
          <mxGeometry x="920.0007407407406" y="339.9974074074079" as="geometry" />
        </mxCell>
        <mxCell id="t640Rx_fxTDDD2z3hvyz-34" value="Su dueño le ordena pararse" style="edgeLabel;html=1;align=center;verticalAlign=middle;resizable=0;points=[];" vertex="1" connectable="0" parent="1">
          <mxGeometry x="770.0007407407406" y="489.9974074074079" as="geometry" />
        </mxCell>
        <mxCell id="t640Rx_fxTDDD2z3hvyz-36" value="Su dueño se mueve" style="edgeLabel;html=1;align=center;verticalAlign=middle;resizable=0;points=[];" vertex="1" connectable="0" parent="1">
          <mxGeometry x="700.0007407407406" y="549.9974074074079" as="geometry" />
        </mxCell>
        <mxCell id="t640Rx_fxTDDD2z3hvyz-37" style="edgeStyle=orthogonalEdgeStyle;rounded=0;orthogonalLoop=1;jettySize=auto;html=1;curved=1;entryX=0.567;entryY=0.986;entryDx=0;entryDy=0;entryPerimeter=0;" edge="1" parent="1" source="t640Rx_fxTDDD2z3hvyz-12" target="t640Rx_fxTDDD2z3hvyz-4">
          <mxGeometry relative="1" as="geometry">
            <mxPoint x="1015" y="530" as="sourcePoint" />
            <mxPoint x="945" y="610" as="targetPoint" />
          </mxGeometry>
        </mxCell>
        <mxCell id="t640Rx_fxTDDD2z3hvyz-39" value="Su dueño le ordena sentarse" style="edgeLabel;html=1;align=center;verticalAlign=middle;resizable=0;points=[];" vertex="1" connectable="0" parent="1">
          <mxGeometry x="930.0007407407406" y="489.9974074074079" as="geometry">
            <mxPoint x="116" y="59" as="offset" />
          </mxGeometry>
        </mxCell>
        <mxCell id="t640Rx_fxTDDD2z3hvyz-40" style="edgeStyle=orthogonalEdgeStyle;rounded=0;orthogonalLoop=1;jettySize=auto;html=1;entryX=1;entryY=0;entryDx=0;entryDy=0;curved=1;" edge="1" parent="1" source="t640Rx_fxTDDD2z3hvyz-6" target="t640Rx_fxTDDD2z3hvyz-7">
          <mxGeometry relative="1" as="geometry">
            <Array as="points">
              <mxPoint x="750" y="280" />
              <mxPoint x="540" y="280" />
              <mxPoint x="540" y="262" />
            </Array>
          </mxGeometry>
        </mxCell>
        <mxCell id="t640Rx_fxTDDD2z3hvyz-41" value="Es atacado" style="edgeLabel;html=1;align=center;verticalAlign=middle;resizable=0;points=[];" vertex="1" connectable="0" parent="1">
          <mxGeometry x="510.00074074074064" y="289.9974074074079" as="geometry" />
        </mxCell>
        <mxCell id="t640Rx_fxTDDD2z3hvyz-43" value="Recibe mas ataques" style="edgeLabel;html=1;align=center;verticalAlign=middle;resizable=0;points=[];" vertex="1" connectable="0" parent="1">
          <mxGeometry x="120.00074074074064" y="157.99740740740788" as="geometry" />
        </mxCell>
        <mxCell id="t640Rx_fxTDDD2z3hvyz-45" value="Come" style="edgeLabel;html=1;align=center;verticalAlign=middle;resizable=0;points=[];" vertex="1" connectable="0" parent="1">
          <mxGeometry x="820.0007407407406" y="259.9974074074079" as="geometry" />
        </mxCell>
        <mxCell id="t640Rx_fxTDDD2z3hvyz-47" value="Atacan a su dueño" style="edgeLabel;html=1;align=center;verticalAlign=middle;resizable=0;points=[];" vertex="1" connectable="0" parent="1">
          <mxGeometry x="410.00074074074064" y="529.9974074074079" as="geometry" />
        </mxCell>
        <mxCell id="t640Rx_fxTDDD2z3hvyz-48" style="edgeStyle=orthogonalEdgeStyle;rounded=0;orthogonalLoop=1;jettySize=auto;html=1;curved=1;" edge="1" parent="1" source="t640Rx_fxTDDD2z3hvyz-7">
          <mxGeometry relative="1" as="geometry">
            <mxPoint x="190" y="250" as="targetPoint" />
            <Array as="points">
              <mxPoint x="110" y="290" />
              <mxPoint x="110" y="170" />
              <mxPoint x="191" y="170" />
              <mxPoint x="191" y="240" />
              <mxPoint x="190" y="240" />
            </Array>
          </mxGeometry>
        </mxCell>
        <mxCell id="t640Rx_fxTDDD2z3hvyz-49" style="edgeStyle=orthogonalEdgeStyle;rounded=0;orthogonalLoop=1;jettySize=auto;html=1;entryX=0.238;entryY=0.899;entryDx=0;entryDy=0;entryPerimeter=0;curved=1;exitX=0.667;exitY=0;exitDx=0;exitDy=0;exitPerimeter=0;" edge="1" parent="1" source="t640Rx_fxTDDD2z3hvyz-7" target="t640Rx_fxTDDD2z3hvyz-5">
          <mxGeometry relative="1" as="geometry" />
        </mxCell>
        <mxCell id="t640Rx_fxTDDD2z3hvyz-50" value="Pierde su ultimo corazon" style="edgeLabel;html=1;align=center;verticalAlign=middle;resizable=0;points=[];" vertex="1" connectable="0" parent="1">
          <mxGeometry x="310.00074074074064" y="199.99740740740788" as="geometry">
            <mxPoint x="4" as="offset" />
          </mxGeometry>
        </mxCell>
        <mxCell id="t640Rx_fxTDDD2z3hvyz-54" value="Recibe ataque de un humano diferente de su amo" style="text;html=1;align=center;verticalAlign=middle;whiteSpace=wrap;rounded=0;" vertex="1" parent="1">
          <mxGeometry x="-40" y="370" width="110" height="10" as="geometry" />
        </mxCell>
        <mxCell id="t640Rx_fxTDDD2z3hvyz-56" value="Es atacado" style="edgeLabel;html=1;align=center;verticalAlign=middle;resizable=0;points=[];" vertex="1" connectable="0" parent="1">
          <mxGeometry x="180.00074074074064" y="399.9974074074079" as="geometry" />
        </mxCell>
        <mxCell id="t640Rx_fxTDDD2z3hvyz-57" style="edgeStyle=orthogonalEdgeStyle;rounded=0;orthogonalLoop=1;jettySize=auto;html=1;curved=1;exitX=0.763;exitY=0.9;exitDx=0;exitDy=0;exitPerimeter=0;" edge="1" parent="1" source="t640Rx_fxTDDD2z3hvyz-13" target="t640Rx_fxTDDD2z3hvyz-4">
          <mxGeometry relative="1" as="geometry">
            <Array as="points">
              <mxPoint x="672" y="670" />
              <mxPoint x="1160" y="670" />
              <mxPoint x="1160" y="475" />
            </Array>
          </mxGeometry>
        </mxCell>
        <mxCell id="t640Rx_fxTDDD2z3hvyz-59" value="Su dueño le ordena sentarse" style="edgeLabel;html=1;align=center;verticalAlign=middle;resizable=0;points=[];" vertex="1" connectable="0" parent="1">
          <mxGeometry x="1210.0007407407406" y="629.9974074074079" as="geometry" />
        </mxCell>
        <mxCell id="t640Rx_fxTDDD2z3hvyz-61" value="Come&amp;nbsp;" style="edgeLabel;html=1;align=center;verticalAlign=middle;resizable=0;points=[];" vertex="1" connectable="0" parent="1">
          <mxGeometry x="550.0007407407406" y="169.99740740740788" as="geometry" />
        </mxCell>
      </root>
    </mxGraphModel>
  </diagram>
</mxfile>
